# xmcd
#
# Track frame offsets:
#	150
#	13886
#	29899
#	45162
#	62386
#	79124
#	93825
#	109318
#	132065
#	144811
#	160418
#
# Disc length: 2398 seconds
#
# Revision: 1
# Processed by: cddbd v1.5.2PL0 Copyright (c) Steve Scherf et al.
# Submitted via: audiograbber 1.83.01
#
DISCID=85095c0b
DTITLE=Jake Bays - Trails
DYEAR=2012
DGENRE=Country
TTITLE0=Trails
TTITLE1=Donkey (I'll Be Allright)
TTITLE2=Mr. Right
TTITLE3=Bottle
TTITLE4=I Can't Love
TTITLE5=Next To Me
TTITLE6=Rock Star
TTITLE7=Willie
TTITLE8=Little Girl
TTITLE9=Time's What You Need
TTITLE10=What Happened To The Country
EXTD=
EXTT0=
EXTT1=
EXTT2=
EXTT3=
EXTT4=
EXTT5=
EXTT6=
EXTT7=
EXTT8=
EXTT9=
EXTT10=
PLAYORDER=
